<svg xmlns="http://www.w3.org/2000/svg" viewBox="0 0 64 64" fill="#000">
  <!-- Antennae -->
  <path d="M26 12 Q22 4 18 2" fill="none" stroke="#000" stroke-width="2.5" stroke-linecap="round"/>
  <path d="M38 12 Q42 4 46 2" fill="none" stroke="#000" stroke-width="2.5" stroke-linecap="round"/>
  <!-- Left claw arm -->
  <path d="M22 22 Q14 18 10 14 Q8 12 6 14 Q4 16 6 18 L12 22 Q10 24 8 22 Q5 19 3 21 Q1 23 3 25 L10 30 Q14 32 20 28Z"/>
  <!-- Right claw arm -->
  <path d="M42 22 Q50 18 54 14 Q56 12 58 14 Q60 16 58 18 L52 22 Q54 24 56 22 Q59 19 61 21 Q63 23 61 25 L54 30 Q50 32 44 28Z"/>
  <!-- Head -->
  <ellipse cx="32" cy="22" rx="12" ry="10"/>
  <!-- Eyes -->
  <circle cx="27" cy="20" r="2.5" fill="white"/>
  <circle cx="37" cy="20" r="2.5" fill="white"/>
  <circle cx="27.5" cy="20" r="1.2" fill="white" stroke="#000" stroke-width="0"/>
  <circle cx="37.5" cy="20" r="1.2" fill="white" stroke="#000" stroke-width="0"/>
  <!-- Body segments -->
  <rect x="24" y="30" width="16" height="7" rx="3"/>
  <rect x="25" y="36" width="14" height="6" rx="2.5"/>
  <rect x="26" y="41" width="12" height="5" rx="2.5"/>
  <rect x="27" y="45" width="10" height="5" rx="2"/>
  <!-- Tail fan -->
  <ellipse cx="28" cy="52" rx="4" ry="5"/>
  <ellipse cx="36" cy="52" rx="4" ry="5"/>
  <ellipse cx="32" cy="53" rx="3" ry="5.5"/>
  <!-- Legs -->
  <line x1="24" y1="33" x2="18" y2="38" stroke="#000" stroke-width="2" stroke-linecap="round"/>
  <line x1="24" y1="37" x2="17" y2="41" stroke="#000" stroke-width="2" stroke-linecap="round"/>
  <line x1="40" y1="33" x2="46" y2="38" stroke="#000" stroke-width="2" stroke-linecap="round"/>
  <line x1="40" y1="37" x2="47" y2="41" stroke="#000" stroke-width="2" stroke-linecap="round"/>
</svg>
